HIERARCHY
ROOT Hips
{
	OFFSET 0.00000 0.00000 0.00000
	CHANNELS 6 Xposition Yposition Zposition Yrotation Zrotation Xrotation 
	JOINT Lumbar
	{
		OFFSET 0 0 0
		CHANNELS 3 Zrotation Xrotation Yrotation
		JOINT Neck
		{
			OFFSET 0.00 0.2701 0.00
			CHANNELS 3 Zrotation Xrotation Yrotation
			End Site
			{
				OFFSET 0.00 0.1379 0.00
			}
		}
		JOINT RightShoulder
		{
			OFFSET 0.0119 0.2289 0.1181
			CHANNELS 3 Zrotation Xrotation Yrotation
			JOINT RightElbow
			{
				OFFSET 0.00 -0.1475 0.00
				CHANNELS 2 Zrotation Yrotation
				JOINT RightWrist
				{
					OFFSET 0.00 -0.1605 0.00
					CHANNELS 2 Zrotation Xrotation
					End Site
					{
						OFFSET 0.0040 -0.1068 0.0006
					}
				}
			}
		}
		JOINT LeftShoulder
		{
			OFFSET 0.0119 0.2289 -0.1181
			CHANNELS 3 Zrotation Xrotation Yrotation
			JOINT LeftElbow
			{
				OFFSET 0.00 -0.1475 0.00
				CHANNELS 2 Zrotation Yrotation
				JOINT LeftWrist
				{
					OFFSET 0.00 -0.1605 0.00
					CHANNELS 2 Zrotation Xrotation
					End Site
					{
						OFFSET 0.0040 -0.1068 -0.0006
					}
				}
			}
		}
	}
	JOINT RightHip
	{
		OFFSET 0.0316 -0.0424 0.0458
		CHANNELS 3 Zrotation Xrotation Yrotation
		JOINT RightKnee
		{
			OFFSET 0.00 -0.2438 0.00
			CHANNELS 1 Zrotation
			JOINT RightAnkle
			{
				OFFSET 0.00 -0.2449 0.00
				CHANNELS 3 Zrotation Xrotation Yrotation
				End Site
				{
					OFFSET 0.1237 -0.0542 0.0051
				}
			}
		}
	}
	JOINT LeftHip
	{
		OFFSET 0.0316 -0.0424 -0.0458
		CHANNELS 3 Zrotation Xrotation Yrotation
		JOINT LeftKnee
		{
			OFFSET 0.00 -0.2438 0.00
			CHANNELS 1 Zrotation
			JOINT LeftAnkle
			{
				OFFSET 0.00 -0.2449 0.00
				CHANNELS 3 Zrotation Xrotation Yrotation
				End Site
				{
					OFFSET 0.1237 -0.0542 -0.0051
				}
			}
		}
	}
}
MOTION
Frames: 25
Frame Time: 0.02
-0.67352 0.56527 -0.12181 636.63347 0 -5.1698 0.78401 5.60549 -1.98104 -27.68147 0.1878 0.91525 53.97876 -5.5915 53.75434 133.50445 113.4845 -54.23003 -6.0739 27.46856 10.62912 -52.91061 91.57443 -78.63682 -8.29154 1.54748 19.71596 2.98325 9.79876 -11.17973 -5.02922 -1.40104 1.15805 -3.81292 -2.67059 -15.99075 -15.07708 7.87343 -2.17356 -7.56267
-0.67448 0.5647 -0.11482 637.80619 0 -4.87642 0.83942 5.53114 -1.97099 -27.73971 0.23155 0.96798 54.24683 -5.58619 53.69613 133.50695 113.27795 -54.24757 -6.05689 27.52521 10.79521 -52.90093 91.39751 -77.32293 -7.57793 0.28785 19.50056 3.05052 10.41 -10.76536 -4.96962 -1.29695 1.83257 -4.19698 -2.72259 -16.7641 -15.50008 8.1069 -2.30108 -7.71445
-0.67543 0.56405 -0.10744 638.94174 0 -4.56237 0.95608 5.4645 -1.96758 -27.81289 0.24651 1.00151 54.50995 -5.6401 53.65898 133.50974 113.12149 -54.20984 -6.05031 27.62621 10.99057 -52.89504 91.26674 -75.6978 -6.5282 -1.37375 19.27197 3.16322 11.02516 -11.04941 -4.98008 -1.21505 2.23253 -4.56462 -2.77948 -17.45585 -16.00612 8.3535 -2.43963 -7.87552
-0.67637 0.56347 -0.10021 640.09382 0 -4.27233 1.04794 5.41311 -1.96319 -27.87809 0.27116 1.03902 54.77171 -5.65998 53.62381 133.51666 112.93135 -54.21709 -6.02834 27.69926 11.17333 -52.8878 91.12904 -74.46927 -5.57159 -2.79355 19.04508 3.25715 11.6182 -11.02666 -4.96518 -1.12608 2.74469 -4.92411 -2.82371 -18.17084 -16.50618 8.5883 -2.57005 -8.03276
-0.67738 0.56276 -0.09306 641.24524 0 -3.9198 1.12837 5.2828 -1.9492 -27.94998 0.30993 1.09694 55.05205 -5.70793 53.54229 133.50694 112.78032 -54.14641 -6.04818 27.80613 11.35369 -52.87877 90.92813 -72.20027 -4.85631 -4.46279 18.8354 3.34252 12.29798 -10.96774 -4.9198 -1.02409 3.31628 -5.35475 -2.91222 -18.94646 -16.86675 8.85138 -2.71388 -8.18659
-0.67825 0.56229 -0.08567 642.39021 0 -3.69253 1.24631 5.31791 -1.95826 -28.01022 0.31341 1.10742 55.28997 -5.71192 53.55879 133.53038 112.56558 -54.21832 -5.98711 27.85166 11.54562 -52.87459 90.87304 -71.98026 -3.57062 -5.70898 18.58462 3.45676 12.79372 -11.1428 -4.95354 -0.95445 3.69721 -5.62744 -2.90948 -19.57362 -17.544 9.0545 -2.83137 -8.35029
-0.6787 0.56247 -0.07768 643.52452 0 -3.81978 1.45653 5.81651 -2.01573 -28.04213 0.21566 0.9945 55.4277 -5.58426 53.87413 133.65884 112.12203 -54.75303 -5.66834 27.73001 11.76354 -52.88107 91.18735 -77.87121 -0.69098 -5.6764 18.25416 3.63965 12.83031 -11.84202 -5.21607 -0.9709 3.60839 -5.51464 -2.65402 -19.83193 -19.02224 9.12234 -2.88472 -8.54003
-0.67902 0.56289 -0.06947 644.65436 0 -4.07316 1.70141 6.47957 -2.09863 -28.06005 0.08542 0.83405 55.51997 -5.41006 54.28208 133.81847 111.61981 -55.42401 -5.27309 27.54259 11.99131 -52.89261 91.6504 -85.76642 2.73267 -5.20645 17.87774 3.85006 12.6737 -12.74299 -5.55161 -1.0189 3.3375 -5.23416 -2.30587 -19.93782 -20.82637 9.1227 -2.90918 -8.73919
-0.67941 0.56321 -0.06139 645.78772 0 -4.2668 1.92805 7.06205 -2.17882 -28.0796 -0.02313 0.69329 55.62208 -5.25442 54.62484 133.95453 111.17262 -55.9943 -4.93454 27.37687 12.21437 -52.90306 92.06103 -92.49395 5.84003 -4.94452 17.50268 4.04804 12.57206 -13.51874 -5.83637 -1.05098 3.15654 -5.00034 -2.00064 -20.10201 -22.51612 9.13235 -2.93955 -8.93393
-0.67975 0.56346 -0.0532 646.91315 0 -4.47049 2.16797 7.67035 -2.22204 -28.12055 -0.16243 0.55946 55.76853 -5.11083 55.06253 134.1289 110.61086 -56.7207 -4.50642 27.24768 12.44152 -52.90864 92.41243 -100.28631 9.2482 -4.65716 17.20906 4.24753 12.60512 -14.46002 -6.19726 -1.09015 2.93819 -4.89263 -1.69472 -20.31739 -24.06609 9.23416 -3.00074 -9.1306
-0.68016 0.56392 -0.04517 648.05494 0 -4.68273 2.3869 8.26272 -2.34804 -28.11226 -0.24437 0.40075 55.81341 -4.93145 55.3284 134.23261 110.26877 -57.16211 -4.24317 27.02572 12.65949 -52.92536 92.91782 -106.35166 12.15775 -4.31417 16.73571 4.44949 12.31669 -15.09592 -6.4167 -1.12219 2.75503 -4.48022 -1.36502 -20.38135 -25.98389 9.12603 -2.99077 -9.32406
-0.6808 0.56491 -0.03758 649.2388 0 -4.89375 2.54539 8.77973 -2.69741 -27.98142 -0.16583 0.18019 55.57471 -4.65449 55.05991 134.11827 110.58706 -56.72069 -4.48401 26.56797 12.87218 -52.97284 93.84696 -107.06381 13.52705 -3.91807 15.7721 4.65396 11.1443 -14.83052 -6.22179 -1.12311 2.74073 -3.28952 -1.0204 -20.14861 -28.82987 8.47254 -2.79072 -9.5146
-0.68152 0.5661 -0.03016 650.43971 0 -5.10767 2.68006 9.27295 -3.12856 -27.79987 -0.02743 -0.06261 55.23735 -4.34453 54.62128 133.93425 111.12201 -55.99848 -4.88838 26.01837 13.0711 -53.03108 94.91897 -105.98706 14.37856 -3.48035 14.63043 4.85907 9.66276 -14.24892 -5.88286 -1.11633 2.76472 -1.79516 -0.65066 -19.75444 -32.03258 7.60872 -2.5199 -9.69786
-0.68219 0.56717 -0.0227 651.63642 0 -5.31679 2.82152 9.7717 -3.52215 -27.63445 0.08786 -0.29219 54.95544 -4.05627 54.28598 133.79266 111.53016 -55.44772 -5.19722 25.50744 13.26124 -53.08356 95.90268 -105.79351 15.48673 -3.06382 13.57357 5.06238 8.35178 -13.8142 -5.61328 -1.11544 2.7544 -0.42385 -0.27286 -19.37815 -35.08077 6.82686 -2.28211 -9.8817
-0.68292 0.56835 -0.01507 652.82018 0 -5.54628 2.98161 10.30008 -3.92009 -27.49641 0.18566 -0.53726 54.63003 -3.73888 53.84774 133.60824 112.05112 -54.72169 -5.59026 25.00613 13.51461 -53.13998 96.99112 -105.37651 16.52871 -2.62237 12.49798 5.27401 6.90878 -13.37351 -5.32944 -1.10568 2.8078 0.8953 0.02956 -19.22665 -38.1216 6.09188 -2.0405 -10.08615
-0.68355 0.56936 -0.00784 654.03228 0 -5.73077 3.09636 10.75696 -4.32583 -27.29116 0.33333 -0.75388 54.36873 -3.47396 53.57777 133.49418 112.39537 -54.28586 -5.85113 24.46517 13.63364 -53.1906 97.89239 -104.96991 17.57252 -2.22897 11.42057 5.46692 5.66777 -12.86751 -5.04061 -1.11201 2.74143 2.38663 0.48923 -18.5757 -41.24152 5.2206 -1.78938 -10.23485
-0.68392 0.56987 -0.00163 655.3421 0 -5.80379 3.09475 11.03849 -4.75208 -26.8985 0.61458 -0.89361 54.34133 -3.37076 53.85311 133.60773 112.14575 -54.77546 -5.67765 23.82653 13.37886 -53.22315 98.25017 -105.05505 18.79537 -1.97672 10.37495 5.61796 5.07988 -12.25597 -4.76874 -1.16603 2.32281 4.33249 1.41535 -16.54379 -44.62959 3.93464 -1.53938 -10.32956
-0.68419 0.57021 0.00416 656.67554 0 -5.82846 3.04754 11.24516 -5.17963 -26.44279 0.94201 -1.00239 54.37677 -3.32025 54.29649 133.79151 111.72017 -55.55642 -5.37096 23.15385 12.99086 -53.24935 98.41272 -105.19753 20.02609 -1.77678 9.33531 5.74831 4.70385 -11.5892 -4.49724 -1.23619 1.78499 6.42974 2.49117 -14.02475 -48.05471 2.53534 -1.28124 -10.35315
-0.68449 0.57065 0.01012 657.98261 0 -5.86556 3.01908 11.47436 -5.59407 -26.02522 1.24176 -1.12043 54.36123 -3.23988 54.63607 133.93202 111.41122 -56.16618 -5.1454 22.50365 12.66739 -53.27805 98.65803 -105.28711 21.2197 -1.55612 8.2974 5.88123 4.2181 -10.94806 -4.22818 -1.29778 1.31136 8.42257 3.47286 -11.75474 -51.37516 1.24782 -1.01949 -10.34093
-0.68486 0.57103 0.01617 659.356 0 -5.94238 2.99827 11.75066 -6.06444 -25.56535 1.57248 -1.25949 54.43365 -3.18261 55.08309 134.11716 110.95843 -56.92742 -4.84021 21.81915 12.32502 -53.30879 98.93215 -105.42913 22.53809 -1.32062 7.2338 6.04236 3.77563 -10.293 -3.94331 -1.36395 0.7989 10.57891 4.56586 -9.35629 -55.0914 -0.29936 -0.78318 -10.60334
-0.68506 0.57148 0.02194 660.59701 0 -5.92587 2.95084 11.91226 -6.41729 -25.17987 1.84807 -1.3472 54.34311 -3.09103 55.35158 134.22808 110.75634 -57.44921 -4.66505 21.20106 11.99254 -53.3336 99.09981 -105.4983 23.60396 -1.1293 6.22827 6.14066 3.30057 -9.6589 -3.69312 -1.42502 0.3357 12.42362 5.46202 -7.11927 -57.97192 -1.33259 -0.49653 -10.29294
-0.68489 0.57224 0.02706 661.46343 0 -5.65514 2.8424 11.76753 -6.44717 -25.01042 1.96685 -1.29986 53.75332 -2.88521 55.05995 134.10716 111.32425 -57.21195 -4.89863 20.75946 11.70273 -53.34371 99.00457 -105.36035 23.98187 -1.04615 5.37579 6.06293 2.65763 -9.08906 -3.54057 -1.46357 0.0625 13.39452 5.77897 -5.38388 -58.6642 -0.89478 -0.04168 -8.27947
-0.68456 0.57307 0.0319 662.19647 0 -5.29373 2.70846 11.51156 -6.35804 -24.91905 2.02708 -1.20197 53.00428 -2.64473 54.58869 133.91138 112.14216 -56.73014 -5.26354 20.38919 11.43053 -53.34801 98.81098 -105.15451 24.10573 -1.00615 4.58369 5.92408 1.98062 -8.54531 -3.42313 -1.4973 -0.16149 14.04049 5.89216 -3.84012 -58.48789 0.06023 0.45759 -5.7172
-0.68427 0.57385 0.03684 662.9925 0 -4.9792 2.58566 11.31183 -6.32168 -24.79548 2.10933 -1.1276 52.35079 -2.4243 54.21744 133.75643 112.82277 -56.37891 -5.55646 19.99672 11.16192 -53.35486 98.67307 -104.98314 24.34119 -0.94726 3.7685 5.81825 1.3384 -7.99563 -3.28918 -1.53618 -0.42485 14.81821 6.0981 -2.25137 -58.62363 0.7644 0.91545 -3.49814
-0.68408 0.57472 0.04188 663.77882 0 -4.63885 2.46384 11.08543 -6.29071 -24.65625 2.21231 -1.04973 51.60124 -2.18644 53.77386 133.57469 113.60061 -55.95499 -5.89731 19.55986 10.84062 -53.36188 98.48348 -104.7969 24.59327 -0.88692 2.93443 5.68967 0.62355 -7.41803 -3.158 -1.56308 -0.62189 15.66899 6.30937 -0.469 -59.11166 1.5333 1.46237 -0.88354
